HIERARCHY
ROOT Hips
{
	OFFSET 0.000000 71.427986 0.000000
	CHANNELS 6 Xposition Yposition Zposition Xrotation Yrotation Zrotation
	JOINT Pelvis
	{
		OFFSET 0.000000 0.000000 0.000000
		CHANNELS 3 Xrotation Yrotation Zrotation
		JOINT LeftUpLeg
		{
			OFFSET 6.797100 -2.508499 -1.318700
			CHANNELS 3 Xrotation Yrotation Zrotation
			JOINT LeftLeg
			{
				OFFSET 0.069008 -29.241863 0.690200
				CHANNELS 3 Xrotation Yrotation Zrotation
				JOINT LeftFoot
				{
					OFFSET -0.069008 -29.568123 -0.266800
					CHANNELS 3 Xrotation Yrotation Zrotation
					JOINT LeftToeBase
					{
						OFFSET 3.145500 -8.631000 16.059900
						CHANNELS 3 Xrotation Yrotation Zrotation
						End Site
						{
							OFFSET 0.000000 18.501587 0.000000
						}
					}
				}
			}
			JOINT Left_ShortSleeve
			{
				OFFSET 0.265923 -10.480953 1.153800
				CHANNELS 3 Xrotation Yrotation Zrotation
				End Site
				{
					OFFSET 1.725763 19.823879 0.000000
				}
			}
		}
		JOINT RightUpLeg
		{
			OFFSET -6.797100 -2.508499 -1.318700
			CHANNELS 3 Xrotation Yrotation Zrotation
			JOINT RightLeg
			{
				OFFSET -0.082453 -29.241932 0.688000
				CHANNELS 3 Xrotation Yrotation Zrotation
				JOINT RightFoot
				{
					OFFSET 0.082453 -29.568058 -0.264600
					CHANNELS 3 Xrotation Yrotation Zrotation
					JOINT RightToeBase
					{
						OFFSET -3.115300 -8.682800 16.113400
						CHANNELS 3 Xrotation Yrotation Zrotation
						End Site
						{
							OFFSET 0.000000 18.567114 0.000000
						}
					}
				}
			}
			JOINT Right_ShortSleeve
			{
				OFFSET -0.265923 -10.480953 1.153800
				CHANNELS 3 Xrotation Yrotation Zrotation
				End Site
				{
					OFFSET -1.725766 19.823910 0.000000
				}
			}
		}
	}
	JOINT Spine
	{
		OFFSET 0.000000 13.368103 0.470500
		CHANNELS 3 Xrotation Yrotation Zrotation
		JOINT Spine1
		{
			OFFSET 0.147000 13.837402 0.538800
			CHANNELS 3 Xrotation Yrotation Zrotation
			JOINT Spine2
			{
				OFFSET 0.168000 16.242897 -1.435500
				CHANNELS 3 Xrotation Yrotation Zrotation
				JOINT Neck
				{
					OFFSET 0.217200 18.631500 -1.679100
					CHANNELS 3 Xrotation Yrotation Zrotation
					JOINT Head
					{
						OFFSET 0.000000 6.599396 1.385900
						CHANNELS 3 Xrotation Yrotation Zrotation
						JOINT Hat
						{
							OFFSET -0.532200 27.220596 -10.096100
							CHANNELS 3 Xrotation Yrotation Zrotation
							End Site
							{
								OFFSET 0.000000 22.029861 0.000000
							}
						}
						JOINT HairD
						{
							OFFSET -10.777400 17.437393 -1.325900
							CHANNELS 3 Xrotation Yrotation Zrotation
							JOINT HairD1
							{
								OFFSET -3.290299 -11.051193 1.062200
								CHANNELS 3 Xrotation Yrotation Zrotation
								End Site
								{
									OFFSET 0.000000 11.579437 0.000000
								}
							}
						}
						JOINT HairB
						{
							OFFSET -10.777400 17.437393 1.467900
							CHANNELS 3 Xrotation Yrotation Zrotation
							JOINT HairB1
							{
								OFFSET -1.561200 -12.956299 3.590200
								CHANNELS 3 Xrotation Yrotation Zrotation
								End Site
								{
									OFFSET 0.000000 13.534866 0.000000
								}
							}
						}
						JOINT HairA
						{
							OFFSET 9.713100 17.437393 1.467900
							CHANNELS 3 Xrotation Yrotation Zrotation
							JOINT HairA1
							{
								OFFSET 1.561200 -12.956299 3.590200
								CHANNELS 3 Xrotation Yrotation Zrotation
								End Site
								{
									OFFSET 0.000000 13.534866 0.000000
								}
							}
						}
						JOINT HairC
						{
							OFFSET 9.713100 17.437393 -1.325900
							CHANNELS 3 Xrotation Yrotation Zrotation
							JOINT HairC1
							{
								OFFSET 3.290300 -11.051193 1.062200
								CHANNELS 3 Xrotation Yrotation Zrotation
								End Site
								{
									OFFSET 0.000000 11.579437 0.000000
								}
							}
						}
					}
				}
				JOINT LeftShoulder
				{
					OFFSET 5.101800 15.108002 -2.763700
					CHANNELS 3 Xrotation Yrotation Zrotation
					JOINT LeftArm
					{
						OFFSET 9.825497 2.506317 -1.597400
						CHANNELS 3 Xrotation Yrotation Zrotation
						JOINT LeftForeArm
						{
							OFFSET 21.966244 0.000000 0.000000
							CHANNELS 3 Xrotation Yrotation Zrotation
							JOINT LeftHand
							{
								OFFSET 33.879036 0.000000 0.000000
								CHANNELS 3 Xrotation Yrotation Zrotation
								JOINT LeftHandThumb1
								{
									OFFSET 6.715286 -2.359680 3.363841
									CHANNELS 3 Xrotation Yrotation Zrotation
									JOINT LeftHandThumb2
									{
										OFFSET 2.507072 -1.447464 1.447461
										CHANNELS 3 Xrotation Yrotation Zrotation
										JOINT LeftHandThumb3
										{
											OFFSET 2.898338 -1.673355 1.673357
											CHANNELS 3 Xrotation Yrotation Zrotation
											End Site
											{
												OFFSET -0.295959 3.727692 -0.131651
											}
										}
									}
								}
								JOINT LeftHandIndex1
								{
									OFFSET 14.190811 -0.254547 3.840278
									CHANNELS 3 Xrotation Yrotation Zrotation
									JOINT LeftHandIndex2
									{
										OFFSET 3.551727 0.000000 -0.000000
										CHANNELS 3 Xrotation Yrotation Zrotation
										JOINT LeftHandIndex3
										{
											OFFSET 2.894196 0.000000 0.000000
											CHANNELS 3 Xrotation Yrotation Zrotation
											End Site
											{
												OFFSET -1.000603 2.690872 0.366626
											}
										}
									}
								}
								JOINT LeftHandMiddle1
								{
									OFFSET 13.776489 0.000000 0.000000
									CHANNELS 3 Xrotation Yrotation Zrotation
									JOINT LeftHandMiddle2
									{
										OFFSET 3.438232 0.000000 0.000000
										CHANNELS 3 Xrotation Yrotation Zrotation
										JOINT LeftHandMiddle3
										{
											OFFSET 3.691551 0.000000 0.000000
											CHANNELS 3 Xrotation Yrotation Zrotation
											End Site
											{
												OFFSET -1.082298 3.499527 0.457670
											}
										}
									}
								}
								JOINT LeftHandRing1
								{
									OFFSET 13.966164 -0.268127 -3.067488
									CHANNELS 3 Xrotation Yrotation Zrotation
									JOINT LeftHandRing2
									{
										OFFSET 3.162567 0.000000 0.000000
										CHANNELS 3 Xrotation Yrotation Zrotation
										JOINT LeftHandRing3
										{
											OFFSET 3.324348 0.000000 0.000000
											CHANNELS 3 Xrotation Yrotation Zrotation
											End Site
											{
												OFFSET -0.861900 3.184998 0.405154
											}
										}
									}
								}
								JOINT LeftHandPinky1
								{
									OFFSET 13.131393 -0.168503 -5.746925
									CHANNELS 3 Xrotation Yrotation Zrotation
									JOINT LeftHandPinky2
									{
										OFFSET 2.849182 0.000000 0.000000
										CHANNELS 3 Xrotation Yrotation Zrotation
										JOINT LeftHandPinky3
										{
											OFFSET 2.805038 0.000000 0.000000
											CHANNELS 3 Xrotation Yrotation Zrotation
											End Site
											{
												OFFSET -0.882500 2.642609 0.325652
											}
										}
									}
								}
							}
							JOINT Left_Sleeve
							{
								OFFSET 6.592125 -0.646545 0.805568
								CHANNELS 3 Xrotation Yrotation Zrotation
								End Site
								{
									OFFSET -0.000179 20.275787 -0.000000
								}
							}
						}
					}
				}
				JOINT RightShoulder
				{
					OFFSET -5.731700 15.108002 -2.763700
					CHANNELS 3 Xrotation Yrotation Zrotation
					JOINT RightArm
					{
						OFFSET -9.825497 2.506317 -1.597400
						CHANNELS 3 Xrotation Yrotation Zrotation
						JOINT RightForeArm
						{
							OFFSET -21.966242 0.000000 0.000000
							CHANNELS 3 Xrotation Yrotation Zrotation
							JOINT RightHand
							{
								OFFSET -33.879032 0.000000 0.000000
								CHANNELS 3 Xrotation Yrotation Zrotation
								JOINT RightHandThumb1
								{
									OFFSET -6.715286 -2.359680 3.363841
									CHANNELS 3 Xrotation Yrotation Zrotation
									JOINT RightHandThumb2
									{
										OFFSET -2.507072 -1.447464 1.447461
										CHANNELS 3 Xrotation Yrotation Zrotation
										JOINT RightHandThumb3
										{
											OFFSET -2.898338 -1.673355 1.673357
											CHANNELS 3 Xrotation Yrotation Zrotation
											End Site
											{
												OFFSET 0.295959 3.727692 -0.131651
											}
										}
									}
								}
								JOINT RightHandIndex1
								{
									OFFSET -14.190811 -0.254547 3.840278
									CHANNELS 3 Xrotation Yrotation Zrotation
									JOINT RightHandIndex2
									{
										OFFSET -3.551727 0.000000 -0.000000
										CHANNELS 3 Xrotation Yrotation Zrotation
										JOINT RightHandIndex3
										{
											OFFSET -2.894196 0.000000 0.000000
											CHANNELS 3 Xrotation Yrotation Zrotation
											End Site
											{
												OFFSET 1.000603 2.690872 0.366626
											}
										}
									}
								}
								JOINT RightHandMiddle1
								{
									OFFSET -13.776489 0.000000 0.000000
									CHANNELS 3 Xrotation Yrotation Zrotation
									JOINT RightHandMiddle2
									{
										OFFSET -3.438232 0.000000 0.000000
										CHANNELS 3 Xrotation Yrotation Zrotation
										JOINT RightHandMiddle3
										{
											OFFSET -3.691551 0.000000 0.000000
											CHANNELS 3 Xrotation Yrotation Zrotation
											End Site
											{
												OFFSET 1.082298 3.499527 0.457670
											}
										}
									}
								}
								JOINT RightHandRing1
								{
									OFFSET -13.966164 -0.268127 -3.067488
									CHANNELS 3 Xrotation Yrotation Zrotation
									JOINT RightHandRing2
									{
										OFFSET -3.162567 0.000000 0.000000
										CHANNELS 3 Xrotation Yrotation Zrotation
										JOINT RightHandRing3
										{
											OFFSET -3.324348 0.000000 0.000000
											CHANNELS 3 Xrotation Yrotation Zrotation
											End Site
											{
												OFFSET 0.861900 3.184998 0.405154
											}
										}
									}
								}
								JOINT RightHandPinky1
								{
									OFFSET -13.131393 -0.168503 -5.746925
									CHANNELS 3 Xrotation Yrotation Zrotation
									JOINT RightHandPinky2
									{
										OFFSET -2.849182 0.000000 0.000000
										CHANNELS 3 Xrotation Yrotation Zrotation
										JOINT RightHandPinky3
										{
											OFFSET -2.805038 0.000000 0.000000
											CHANNELS 3 Xrotation Yrotation Zrotation
											End Site
											{
												OFFSET 0.882500 2.642609 0.325652
											}
										}
									}
								}
							}
							JOINT Right_Sleeve
							{
								OFFSET -6.592125 -0.646545 0.805568
								CHANNELS 3 Xrotation Yrotation Zrotation
								End Site
								{
									OFFSET 0.000179 20.275787 -0.000000
								}
							}
						}
					}
				}
				JOINT Bind_Right_JacketString
				{
					OFFSET -3.534800 11.969597 7.200700
					CHANNELS 3 Xrotation Yrotation Zrotation
					JOINT Bind_Right_JacketString1
					{
						OFFSET -0.319900 -6.102600 2.794100
						CHANNELS 3 Xrotation Yrotation Zrotation
						End Site
						{
							OFFSET 0.000000 6.719452 0.000000
						}
					}
				}
				JOINT Bind_Left_JacketString
				{
					OFFSET 2.904800 11.969597 7.200700
					CHANNELS 3 Xrotation Yrotation Zrotation
					JOINT Bind_Left_JacketString1
					{
						OFFSET 0.364800 -5.904503 3.186800
						CHANNELS 3 Xrotation Yrotation Zrotation
						End Site
						{
							OFFSET 0.000000 6.719513 0.000000
						}
					}
				}
				JOINT HairE
				{
					OFFSET 5.915200 17.612701 -11.592200
					CHANNELS 3 Xrotation Yrotation Zrotation
					JOINT HairE1
					{
						OFFSET 0.289200 -7.171898 -1.284500
						CHANNELS 3 Xrotation Yrotation Zrotation
						End Site
						{
							OFFSET 0.000000 7.291756 0.000000
						}
					}
				}
				JOINT HairF
				{
					OFFSET -0.864800 17.612701 -11.592200
					CHANNELS 3 Xrotation Yrotation Zrotation
					JOINT HairF1
					{
						OFFSET 0.000000 -14.087097 -2.127501
						CHANNELS 3 Xrotation Yrotation Zrotation
						End Site
						{
							OFFSET 0.000000 14.246841 0.000000
						}
					}
				}
				JOINT HairG
				{
					OFFSET -8.087700 17.612701 -11.592200
					CHANNELS 3 Xrotation Yrotation Zrotation
					JOINT HairG1
					{
						OFFSET -0.293600 -6.081398 -0.910100
						CHANNELS 3 Xrotation Yrotation Zrotation
						End Site
						{
							OFFSET 0.000000 6.156120 0.000000
						}
					}
				}
			}
		}
	}
	JOINT Pouch
	{
		OFFSET 0.000000 4.394501 10.847300
		CHANNELS 3 Xrotation Yrotation Zrotation
		End Site
		{
			OFFSET 0.000000 21.880577 0.000000
		}
	}
	JOINT Bag
	{
		OFFSET -13.229000 4.813004 -0.593300
		CHANNELS 3 Xrotation Yrotation Zrotation
		End Site
		{
			OFFSET 0.000000 21.880577 0.000000
		}
	}
	JOINT OccupyGuyFacialAnim_Joint
	{
		OFFSET 1.000000 -70.206398 -1.655000
		CHANNELS 3 Xrotation Yrotation Zrotation
		End Site
		{
			OFFSET 0.000000 21.880577 0.000000
		}
	}
}
MOTION
Frames: 5
Frame Time: 0.033333
1.349701 60.183029 8.642580 -16.133522 17.197655 -1.663820 0.000000 -0.000000 -0.000000 -14.234538 -6.381398 18.822355 68.903788 -0.597465 0.484626 -40.590786 -10.747835 -13.364264 0.000000 -0.000000 0.000000 -0.000000 0.000000 0.000002 -1.525075 -25.174780 -16.248772 59.729868 0.504004 -0.372391 -40.487678 -3.041494 14.017294 -0.000000 -0.000000 -0.000000 -0.000001 -0.000001 -0.000000 14.722936 0.658632 -3.365762 -2.418729 4.031410 -6.211519 -2.375672 3.986603 -6.261933 -28.759584 -16.900130 -0.522682 -33.530290 -12.463945 -2.966814 -0.000000 0.000000 -0.000000 -0.000000 0.000000 -0.000000 -0.000000 0.000000 -0.000000 -0.000000 0.000000 -0.000000 -0.000000 -0.000000 -0.000000 -0.000000 0.000000 -0.000000 -0.000000 -0.000000 -0.000000 -0.000000 0.000000 -0.000000 -0.000000 0.000000 -0.000000 3.870609 -12.688453 7.847178 16.518912 23.027266 -20.159664 190.963032 -37.920831 146.201606 -4.311180 -23.217165 6.588761 -3.168964 17.830182 -4.139338 11.384826 13.870364 -4.322694 -0.000002 0.000002 0.000002 0.737748 17.487176 -58.054122 2.539636 9.514116 -39.424835 -0.000000 0.000001 -0.000000 -3.419658 22.148429 -59.168194 4.647681 10.061239 -51.400688 0.000003 0.000002 0.000001 -7.044984 17.873094 -75.277516 3.403870 7.284783 -44.264728 -0.000001 0.000003 -0.000001 -12.618161 19.405353 -78.044549 7.065956 2.001213 -62.530839 -0.000001 0.000001 0.000003 0.000004 0.000002 0.000002 -0.559282 0.068310 -31.653190 -41.007657 31.801603 -15.125676 -17.121529 0.418717 1.309359 -20.504643 7.015523 -17.223586 5.296900 -13.777222 -5.746983 4.077269 -0.473693 7.299541 -0.000001 -0.000001 -0.000000 -9.756814 5.190380 0.005821 0.245613 -3.677680 3.433567 -0.000002 0.000000 -0.000001 -6.670102 -13.414003 60.504049 10.075280 -12.471430 79.861598 0.000001 0.000000 0.000001 -10.319904 -16.951001 75.102438 10.223664 -10.728263 81.639742 0.000002 0.000000 -0.000003 -16.029918 -17.962231 72.630627 10.151657 -3.139167 77.003389 0.000001 -0.000001 0.000002 -0.000000 -0.000000 -0.000001 0.000000 0.000001 0.000003 0.000000 0.000001 0.000001 0.000000 0.000001 0.000003 0.000000 0.000001 0.000003 0.000000 0.000001 0.000003 0.000000 0.000001 0.000001 0.000000 0.000001 0.000003 0.000000 0.000001 0.000003 0.000000 0.000001 0.000003 0.000000 0.000001 0.000001 0.000000 -0.000000 -0.000000 0.000000 -0.000000 -0.000000 0.000000 -0.000000 -0.000000 
1.453109 60.360962 8.567463 -16.479947 17.271301 -1.272656 -0.000001 -0.000001 -0.000000 -13.873624 -5.843521 18.603104 68.347155 -0.597554 0.481014 -40.226823 -11.210254 -13.197330 0.000000 0.000000 0.000000 0.000001 -0.000001 -0.000002 -0.997387 -24.822024 -16.252575 59.164690 0.509028 -0.365232 -40.095755 -3.551268 14.003235 0.000000 -0.000002 -0.000000 -0.000000 -0.000000 0.000000 14.754165 0.589596 -3.226620 -2.356513 3.801027 -6.056993 -2.317973 3.756727 -6.105154 -28.039124 -16.862214 -0.094814 -33.949203 -12.147911 -3.139690 -0.000000 -0.000000 0.000000 -0.000000 -0.000000 0.000000 -0.000000 -0.000000 0.000000 -0.000000 -0.000000 -0.000000 -0.000000 0.000000 0.000000 -0.000000 -0.000000 -0.000000 -0.000000 0.000000 0.000000 -0.000000 -0.000000 0.000000 -0.000000 -0.000000 0.000000 3.860723 -13.100780 7.399512 16.594986 23.436059 -19.737783 191.839332 -38.255111 146.516751 -3.582031 -23.131797 7.520398 -3.168695 17.829379 -4.138899 11.616979 14.312931 -4.252664 0.000002 0.000001 0.000002 0.737739 17.487186 -58.054122 2.603644 9.590287 -39.990249 0.000003 0.000002 0.000002 -3.419664 22.148434 -59.168194 4.647676 10.061235 -51.400701 -0.000001 -0.000002 -0.000003 -7.045001 17.873109 -75.277496 3.322369 7.201016 -43.705708 0.000002 0.000001 0.000000 -12.618179 19.405373 -78.044528 7.065939 2.001192 -62.530846 -0.000002 -0.000001 0.000001 -0.000002 -0.000005 -0.000003 -0.504194 0.177737 -31.437202 -41.133657 32.257819 -15.247311 -17.036633 -0.060625 1.273226 -20.593072 7.302382 -17.060330 5.296915 -13.777149 -5.746965 4.077269 -0.473655 7.299542 0.000002 -0.000001 0.000002 -9.756830 5.190385 0.005812 0.245742 -3.677247 3.433673 0.000003 -0.000000 0.000000 -6.670093 -13.413990 60.504070 10.075265 -12.471423 79.861604 0.000000 -0.000000 0.000004 -10.319893 -16.951008 75.102431 10.223653 -10.728258 81.639769 0.000001 -0.000000 -0.000000 -16.029926 -17.962226 72.630620 10.151683 -3.139194 77.003382 -0.000001 -0.000001 0.000000 -0.000000 -0.000000 0.000000 -0.000000 -0.000000 0.000000 -0.000000 -0.000000 0.000001 -0.000000 -0.000000 -0.000000 -0.000000 -0.000000 -0.000000 -0.000000 -0.000000 0.000000 -0.000000 -0.000000 0.000001 -0.000000 -0.000000 -0.000000 -0.000000 -0.000000 -0.000000 -0.000000 -0.000000 0.000000 -0.000000 -0.000000 0.000001 -0.000001 -0.000001 -0.000000 -0.000001 -0.000001 -0.000000 -0.000001 -0.000001 -0.000000 
1.506760 60.568672 8.464376 -16.826381 17.414740 -0.788157 0.000003 -0.000001 -0.000000 -13.491128 -5.408569 18.272455 67.643571 -0.600793 0.476326 -39.727905 -11.617299 -13.052923 -0.000000 -0.000000 0.000000 -0.000001 0.000000 -0.000002 -0.409029 -24.260470 -16.090532 58.564152 0.515621 -0.357642 -39.686271 -4.416947 13.867222 0.000000 -0.000002 -0.000000 -0.000000 0.000000 0.000002 14.815263 0.526646 -3.099377 -2.243404 3.601579 -5.904822 -2.208566 3.559551 -5.950367 -26.628073 -16.738354 0.924877 -34.956109 -11.433839 -3.379303 0.000001 0.000000 -0.000000 0.000001 0.000000 -0.000000 0.000001 0.000000 0.000000 0.000001 0.000000 0.000000 -0.000001 0.000000 -0.000000 0.000001 0.000000 0.000000 -0.000001 0.000000 -0.000000 0.000001 0.000000 -0.000000 0.000001 0.000000 -0.000000 3.855663 -13.453833 7.082416 16.591329 23.690166 -19.493353 191.903030 -38.240341 146.222206 -3.549751 -23.101443 8.503403 -3.168476 17.828641 -4.138484 11.782747 14.629181 -4.203672 0.000003 0.000002 0.000001 0.737745 17.487176 -58.054108 2.649781 9.644204 -40.394258 -0.000000 0.000003 0.000002 -3.419690 22.148442 -59.168167 4.647692 10.061258 -51.400677 0.000002 0.000005 -0.000002 -7.044992 17.873109 -75.277496 3.264650 7.140690 -43.306510 0.000003 0.000000 0.000003 -12.618166 19.405375 -78.044542 7.065935 2.001197 -62.530826 -0.000000 -0.000002 0.000001 0.000000 -0.000003 -0.000000 -0.372683 0.492682 -31.183020 -41.236967 31.847738 -15.426530 -18.214673 -0.419167 1.490050 -20.586743 7.765482 -16.868735 5.297081 -13.776862 -5.746980 4.077281 -0.473696 7.299515 -0.000003 -0.000001 0.000001 -9.756808 5.190393 0.005811 0.245821 -3.676810 3.433728 -0.000000 -0.000001 0.000002 -6.670092 -13.413984 60.504035 10.075283 -12.471443 79.861618 -0.000001 -0.000001 -0.000003 -10.319894 -16.951020 75.102445 10.223657 -10.728267 81.639769 0.000000 0.000001 0.000006 -16.029901 -17.962236 72.630620 10.151657 -3.139143 77.003396 -0.000001 -0.000001 -0.000001 0.000000 0.000000 -0.000000 0.000000 -0.000001 -0.000000 0.000000 0.000001 0.000000 0.000000 -0.000001 -0.000000 0.000000 -0.000001 -0.000000 0.000000 -0.000001 -0.000000 0.000000 0.000001 0.000000 0.000000 -0.000001 -0.000000 0.000000 -0.000001 -0.000000 0.000000 -0.000001 -0.000000 0.000000 0.000001 0.000000 0.000003 -0.000001 -0.000000 0.000003 -0.000001 -0.000000 0.000003 -0.000001 -0.000000 
1.557086 60.804657 8.348221 -17.362809 17.614696 -0.253329 -0.000002 0.000001 0.000001 -12.863752 -5.114499 17.872916 66.852061 -0.606349 0.470991 -39.168427 -11.908758 -12.890589 0.000000 -0.000001 0.000000 -0.000002 0.000001 -0.000001 0.455920 -23.673840 -15.826279 57.844073 0.525688 -0.348365 -39.219158 -5.403115 13.703817 -0.000000 0.000000 0.000000 0.000001 0.000000 -0.000000 14.985160 0.474128 -2.952524 -1.923873 3.426062 -5.733557 -1.892614 3.386736 -5.775981 -23.714615 -16.109462 1.342123 -36.361967 -10.939411 -3.000847 0.000002 -0.000000 -0.000000 0.000002 -0.000000 -0.000000 0.000002 -0.000000 -0.000000 0.000002 -0.000000 -0.000000 0.000000 -0.000000 0.000000 0.000002 -0.000000 -0.000000 0.000000 -0.000000 0.000000 0.000002 -0.000000 -0.000000 0.000002 -0.000000 -0.000000 3.845174 -13.740317 6.771938 16.437356 23.718009 -19.296512 191.138049 -37.906973 145.330170 -3.654956 -22.997901 9.888572 -3.168259 17.828010 -4.138123 11.849051 14.755751 -4.184320 -0.000002 -0.000000 0.000000 0.737742 17.487192 -58.054122 2.668224 9.665448 -40.555932 0.000003 0.000001 0.000002 -3.419673 22.148452 -59.168221 4.647651 10.061229 -51.400667 0.000003 -0.000000 -0.000001 -7.044982 17.873121 -75.277530 3.241690 7.116443 -43.146872 0.000000 0.000003 0.000000 -12.618162 19.405377 -78.044562 7.065889 2.001201 -62.530805 0.000002 0.000000 -0.000001 0.000001 -0.000002 0.000002 -0.214713 0.941177 -30.825221 -41.266671 29.341898 -15.334355 -21.445300 1.291639 1.598269 -19.673984 9.020613 -17.354278 5.297398 -13.776287 -5.747025 4.077267 -0.473693 7.299525 -0.000002 -0.000001 0.000001 -9.756811 5.190400 0.005799 0.245942 -3.676383 3.433822 0.000002 0.000001 -0.000001 -6.670095 -13.413987 60.504035 10.075279 -12.471435 79.861618 -0.000000 -0.000001 -0.000003 -10.319892 -16.951012 75.102397 10.223657 -10.728269 81.639769 0.000003 0.000000 0.000002 -16.029918 -17.962236 72.630599 10.151665 -3.139194 77.003348 0.000000 -0.000002 0.000004 -0.000000 0.000000 -0.000000 0.000001 0.000001 -0.000000 -0.000000 -0.000001 0.000001 0.000001 0.000001 -0.000000 0.000001 0.000001 -0.000000 0.000001 0.000001 -0.000000 -0.000000 -0.000001 0.000001 0.000001 0.000001 -0.000000 0.000001 0.000001 -0.000000 0.000001 0.000001 -0.000000 -0.000000 -0.000001 0.000001 -0.000002 0.000001 0.000001 -0.000002 0.000001 0.000001 -0.000002 0.000001 0.000001 
1.630434 61.127838 8.253004 -18.415775 17.916554 0.161632 0.000001 0.000001 0.000000 -11.545326 -5.041515 17.670417 65.871478 -0.613777 0.464356 -38.566356 -12.076637 -12.710583 -0.000000 0.000000 -0.000000 0.000001 0.000001 0.000002 2.247440 -23.219284 -15.118501 56.598595 0.554279 -0.331177 -38.519996 -6.449613 13.523690 0.000000 0.000000 -0.000000 -0.000001 -0.000001 -0.000001 15.357008 0.373339 -2.757928 -1.213808 3.145319 -5.490757 -1.186312 3.107707 -5.528347 -18.940280 -15.070242 2.262936 -37.526289 -10.306669 -2.437778 0.000001 0.000000 0.000000 0.000001 0.000000 0.000000 0.000001 0.000000 0.000000 0.000001 0.000000 0.000000 0.000001 0.000000 0.000000 0.000001 0.000000 0.000000 0.000001 0.000000 0.000000 0.000001 0.000000 0.000000 0.000001 0.000000 0.000000 3.846045 -13.771047 6.877428 16.304333 23.366340 -19.487187 189.506221 -38.509897 142.953646 -2.544402 -23.739142 12.850267 -3.168117 17.827504 -4.137857 11.782736 14.629177 -4.203677 0.000001 -0.000002 0.000000 0.737716 17.487178 -58.054135 2.649403 9.643516 -40.394309 0.000002 -0.000001 0.000005 -3.419669 22.148430 -59.168194 4.647663 10.061243 -51.400694 0.000000 0.000000 0.000001 -7.045000 17.873089 -75.277509 3.264644 7.140700 -43.306500 -0.000004 -0.000004 -0.000004 -12.618167 19.405349 -78.044535 7.065947 2.001186 -62.530853 -0.000003 0.000001 0.000001 -0.000001 0.000001 0.000005 -0.093731 1.209753 -29.575382 -41.120116 24.244591 -14.467544 -24.986181 12.388694 3.303940 -17.717973 10.795382 -19.687223 5.297793 -13.775029 -5.746957 4.077252 -0.473639 7.299561 -0.000002 0.000000 -0.000000 -9.756831 5.190379 0.005803 0.246063 -3.675878 3.433929 -0.000000 -0.000001 0.000002 -6.670107 -13.413976 60.504022 10.075283 -12.471435 79.861632 -0.000002 0.000002 0.000003 -10.319903 -16.951012 75.102404 10.223634 -10.728250 81.639742 0.000002 -0.000001 -0.000002 -16.029928 -17.962228 72.630627 10.151667 -3.139182 77.003382 -0.000001 -0.000005 -0.000004 -0.000001 0.000001 -0.000001 0.000002 0.000000 0.000001 0.000001 -0.000001 0.000002 0.000002 0.000000 -0.000001 0.000002 0.000000 -0.000001 0.000002 0.000000 0.000001 0.000001 -0.000001 0.000003 0.000002 0.000000 -0.000001 0.000002 0.000000 -0.000001 0.000002 0.000000 0.000001 0.000001 -0.000001 0.000003 0.000001 0.000001 0.000000 0.000001 0.000001 0.000000 0.000001 0.000001 0.000000 
